<svg width="88" height="87" viewBox="0 0 88 87" fill="none" xmlns="http://www.w3.org/2000/svg">
<g clip-path="url(#clip0_424_42)">
<path d="M43.9188 -0.353516C45.1674 -0.480634 53.0408 3.74724 54.716 4.56858C60.0511 7.14031 65.368 9.75105 70.6665 12.4005C71.7113 12.9257 72.973 13.3914 73.959 13.9836C75.8228 15.1027 79.0098 15.6064 79.6462 17.9789C80.1175 19.7352 80.4828 21.4647 80.88 23.2105C81.7382 26.9774 82.5746 30.7495 83.39 34.5264L86.2224 47.1379C86.8189 49.7888 87.5327 52.4398 87.8886 55.1387C87.999 55.9708 87.8856 56.1497 87.3947 56.8176C86.7982 57.6275 86.1426 58.3938 85.5205 59.1844L81.8033 63.9209L73.1205 74.9704C71.1583 77.4293 69.3717 80.1028 67.2642 82.4779C66.5655 83.2652 64.2434 86.823 63.3414 86.9416C61.1788 87.226 58.5762 87.1245 56.3833 87.1223L44.1693 87.1217L34.31 87.0879C32.6681 87.089 25.9347 87.3011 24.6404 86.9292C23.7964 86.6868 20.6421 82.2915 19.835 81.2427L14.6655 74.5678C12.1516 71.2858 9.41085 67.927 6.84557 64.6323L2.11832 58.5901C1.59688 57.9166 0.50511 56.6529 0.16971 55.9384C0.122289 53.999 1.12869 50.537 1.57391 48.499L4.4608 35.5652C5.74048 29.9165 6.8571 24.1839 8.2685 18.5509C8.32539 18.3311 8.73226 16.8559 8.85944 16.7576C10.2762 15.6629 13.1987 14.4574 14.7222 13.7107L25.2326 8.52704L36.6891 2.97096C38.4276 2.11935 42.1606 -0.104811 43.9188 -0.353516Z" fill="#5AE0E4"/>
<path d="M34.9309 29.467L53.8168 29.4327L53.849 35.0675L41.6354 35.0955L41.592 40.8301C45.2235 40.9204 49.0478 40.8671 52.6942 40.8727C52.6005 41.9386 52.6213 43.6186 52.6005 44.7315C52.5982 45.2521 52.553 45.5202 52.4752 46.0369C51.7106 46.4684 43.1668 46.2752 41.6006 46.265L41.6015 57.6612L34.9062 57.6607L34.9309 29.467Z" fill="black"/>
<path d="M43.9188 -0.353516C45.1674 -0.480634 53.0408 3.74724 54.716 4.56858C60.0511 7.14031 65.368 9.75105 70.6665 12.4005C71.7113 12.9257 72.973 13.3914 73.959 13.9836C75.8228 15.1027 79.0097 15.6064 79.6462 17.9789C80.1175 19.7352 80.4828 21.4647 80.88 23.2105C81.7382 26.9774 82.5746 30.7495 83.39 34.5264L86.2224 47.1379C86.8189 49.7888 87.5327 52.4398 87.8886 55.1387C87.999 55.9708 87.8856 56.1497 87.3946 56.8176C86.7982 57.6275 86.1426 58.3938 85.5205 59.1844L81.8033 63.9209L73.1205 74.9704C71.1583 77.4293 69.3717 80.1028 67.2642 82.4779C66.5655 83.2652 64.2434 86.823 63.3414 86.9416C61.1788 87.226 58.5762 87.1245 56.3833 87.1223L44.1693 87.1217L34.31 87.0879C32.6681 87.089 25.9347 87.3011 24.6404 86.9292C23.7964 86.6868 20.6421 82.2915 19.835 81.2427L14.6655 74.5678C12.1516 71.2858 9.41085 67.927 6.84557 64.6323L2.11832 58.5901C1.59688 57.9166 0.50511 56.6529 0.16971 55.9384C0.122289 53.9989 1.12869 50.537 1.57391 48.499L4.4608 35.5652C5.74048 29.9165 6.8571 24.1839 8.2685 18.5508C8.32539 18.3311 8.73226 16.8559 8.85944 16.7576C10.2762 15.6629 13.1987 14.4574 14.7222 13.7107L25.2326 8.52704L36.6891 2.97096C38.4276 2.11935 42.1606 -0.104811 43.9188 -0.353516Z" fill="#5AE0E4"/>
<path d="M34.9309 29.467L53.8168 29.4327L53.849 35.0675L41.6354 35.0955L41.592 40.8301C45.2235 40.9204 49.0478 40.8671 52.6942 40.8727C52.6005 41.9386 52.6213 43.6186 52.6005 44.7315C52.5982 45.2521 52.553 45.5202 52.4752 46.0369C51.7106 46.4684 43.1668 46.2752 41.6006 46.265L41.6015 57.6612L34.9062 57.6607L34.9309 29.467Z" fill="black"/>
</g>
<defs>
<clipPath id="clip0_424_42">
<rect width="88" height="87" fill="white"/>
</clipPath>
</defs>
</svg>
