<svg width="223" height="218" viewBox="0 0 223 218" fill="none" xmlns="http://www.w3.org/2000/svg">
<g clip-path="url(#clip0_424_43)">
<path d="M111.145 0.0558071C114.311 -0.260193 134.276 10.2498 138.524 12.2916C152.053 18.6846 165.535 25.1746 178.971 31.7608C181.62 33.0663 184.82 34.2241 187.32 35.6961C192.046 38.4781 200.128 39.7303 201.742 45.6281C202.937 49.9941 203.863 54.2933 204.87 58.6331C207.047 67.9973 209.168 77.3743 211.235 86.7631L218.418 118.114C219.93 124.704 221.74 131.294 222.642 138.003C222.922 140.071 222.635 140.516 221.39 142.176C219.878 144.19 218.215 146.095 216.638 148.06L207.212 159.834L185.194 187.302C180.218 193.415 175.688 200.061 170.344 205.965C168.572 207.922 162.684 216.766 160.396 217.061C154.912 217.768 148.313 217.516 142.752 217.51L111.78 217.509L86.779 217.425C82.6155 217.428 65.541 217.955 62.259 217.03C60.1187 216.428 52.1202 205.502 50.0735 202.894L36.965 186.301C30.5902 178.143 23.6402 169.793 17.1352 161.603L5.14799 146.583C3.82574 144.908 1.05724 141.767 0.206743 139.991C0.086493 135.17 2.6385 126.564 3.7675 121.497L11.088 89.3456C14.333 75.3036 17.1645 61.0528 20.7435 47.0498C20.8877 46.5036 21.9195 42.8363 22.242 42.5921C25.8345 39.8708 33.2455 36.8741 37.1087 35.0178L63.7607 22.1318L92.812 8.32006C97.2202 6.20306 106.686 0.674057 111.145 0.0558071Z" fill="#5AE0E4"/>
<path d="M123.682 99.083C129.672 98.9687 133.642 101.086 135.156 107.313C135.587 109.09 135.515 110.689 135.709 112.497C130.513 112.479 125.317 112.491 120.121 112.533C120.614 113.844 120.797 114.435 121.693 115.541C124.69 119.239 127.775 115.584 131.221 114.903C132.075 114.734 134.048 114.909 135.017 114.976L135.395 115.166C135.498 116.07 134.841 117.118 134.342 117.858C130.859 123.021 122.268 123.796 117.401 120.154C112.534 116.511 112.015 107.429 115.946 102.793C118.342 99.967 120.224 99.461 123.682 99.083Z" fill="black"/>
<path d="M123.8 104.248C127.41 104.176 127.827 105.052 129.137 108.179L125.581 108.236L120.166 108.207C121.209 106.03 121.686 105.302 123.8 104.248Z" fill="#5AE0E4"/>
<path d="M33.2295 91.7105L53.8888 91.6737L53.924 97.7267L40.5635 97.7567L40.516 103.917C44.4885 104.014 48.672 103.957 52.6608 103.963C52.5583 105.108 52.581 106.912 52.5583 108.108C52.5558 108.667 52.5063 108.955 52.4213 109.51C51.5848 109.974 42.2388 109.766 40.5255 109.755L40.5265 121.997L33.2025 121.997L33.2295 91.7105Z" fill="black"/>
<path d="M154.687 100.308C161.517 96.6253 166.851 100.433 167.112 107.744C167.281 112.477 167.221 117.265 167.223 121.993L159.855 122.001C159.895 119.78 159.921 117.558 159.933 115.337C159.94 114.035 161.095 101.077 153.716 106.009C151.726 107.338 152.441 118.546 152.47 121.99L145.22 121.996L145.261 99.2035C147.135 99.275 150.271 98.989 151.953 99.203C153.263 99.5405 153.522 99.6353 154.687 100.308Z" fill="black"/>
<path d="M151.953 99.203C153.263 99.5405 153.522 99.6352 154.687 100.308C153.328 101.415 152.986 102.206 152.291 103.8L151.953 99.203Z" fill="#64D6D2"/>
<path d="M102.855 99.1622L103.063 99.13C103.646 99.9565 103.331 119.391 103.428 121.987C101.021 122.011 98.7813 121.942 96.3823 121.854L96.5438 117.87C93.5275 121.886 88.2725 124.289 83.918 120.331C81.1608 117.826 81.4815 113.363 81.4968 109.875L81.5173 99.1965C83.8698 99.2573 86.3493 99.1985 88.712 99.1795C88.7235 102.517 88.2065 113.771 89.608 114.978C98.1375 122.326 96.173 101.392 96.04 99.2462C98.3118 99.24 100.584 99.212 102.855 99.1622Z" fill="black"/>
<path d="M179.1 93.7042L186.473 93.747L186.467 99.2532L190.586 99.2595C190.513 101.026 190.533 102.975 190.517 104.757L186.444 104.695C186.435 106.609 186.116 115.332 186.977 116.227C187.859 116.685 188.907 116.553 189.916 116.523C190.29 118.02 190.542 119.924 190.792 121.479L190.698 121.788C189.895 122.243 188.94 122.196 188.082 122.267C181.465 122.812 178.868 120.076 179.14 113.437C179.243 110.926 179.198 107.412 179.189 104.749L176.219 104.842L176.249 99.2082C177.491 99.2565 178.052 99.45 178.967 98.7727C179.651 97.501 179.225 95.2625 179.1 93.7042Z" fill="black"/>
<path d="M63.821 91.608C65.8447 91.7005 68.895 91.64 70.8852 91.5487C71.066 101.431 70.9387 111.759 70.9617 121.682L70.7782 121.89C69.7112 122.14 65.101 122.016 63.7362 122.005C63.815 113.912 63.6647 105.796 63.7192 97.7012C63.733 95.658 63.6895 93.65 63.821 91.608Z" fill="black"/>
</g>
<defs>
<clipPath id="clip0_424_43">
<rect width="223" height="218" fill="white"/>
</clipPath>
</defs>
</svg>
